<mxfile host="app.diagrams.net" modified="2023-12-19T15:01:10.845Z" agent="Mozilla/5.0 (Windows NT 10.0; Win64; x64) AppleWebKit/537.36 (KHTML, like Gecko) Chrome/120.0.0.0 Safari/537.36 Edg/120.0.0.0" version="22.1.11" etag="CMmuckzuBMq13jUbCOr4" type="github">
  <diagram name="第 1 页" id="5hTst3c8hkiUruZ8jMLb">
    <mxGraphModel>
      <root>
        <mxCell id="0" />
        <mxCell id="1" parent="0" />
      </root>
    </mxGraphModel>
  </diagram>
</mxfile>
